# xmcd CD database file
#
# Track frame offsets:
#	150
#	24673
#	47895
#	61238
#
# Disc length: 1141 seconds
#
# Revision: 0
# Processed by: cddbd v1.5.1PL0 Copyright (c) Steve Scherf et al.
# Submitted via: CDex 1.51
#
DISCID=2f047304
DTITLE=スキマスイッチ - 冬の口笛
DYEAR=2004
DGENRE=Acoustic
TTITLE0=冬の口笛
TTITLE1=弦楽四重奏のための『ドーシタトースター』
TTITLE2=追伸 (instrumental)
TTITLE3=冬の口笛 (backing track)
EXTD=YEAR: 2004
EXTT0=
EXTT1=
EXTT2=
EXTT3=
PLAYORDER=
